<svg id="orange-svg" enable-background="new 0 0 509.562 509.562" viewBox="0 0 509.562 509.562" width="512" xmlns="http://www.w3.org/2000/svg">
    <path d="m266.243 111.9c-1.044-3.27-2.222-6.468-3.531-9.596 45.661 2.49 85.39-30.51 91.532-75.665.902-6.629-2.415-13.119-8.316-16.27-45.3-24.192-101.456-4.456-121.719 42.613-16.351-12.883-34.499-21.978-49.997-28.928-8.062-3.618-17.53-.011-21.147 8.051-3.616 8.063-.011 17.531 8.051 21.147 29.523 13.241 58.116 30.035 71.216 59.585-99.198 11.19-176.55 95.587-176.55 197.726 0 109.729 89.271 199 199 199s199-89.271 199-199c-.001-105.882-83.125-192.703-187.539-198.663zm53.364-77.817c-10.025 27.192-39.186 42.108-67.108 34.303 10.022-27.191 39.183-42.107 67.108-34.303zm-64.826 443.479c-92.084 0-167-74.916-167-167 0-87.099 67.028-158.825 152.209-166.337.786 9.726.428 20.229-1.071 31.576-1.157 8.76 5.006 16.8 13.767 17.958 8.8 1.16 16.805-5.044 17.958-13.767 1.661-12.571 2.153-24.394 1.486-35.531 83.962 8.706 149.652 79.875 149.652 166.102-.001 92.083-74.917 166.999-167.001 166.999z"/>
</svg>