<svg height="511pt" viewBox="1 -23 511.99849 511" width="511pt" xmlns="http://www.w3.org/2000/svg"><path d="m127.035156 129.976562c0 10.488282 4.085938 20.351563 11.519532 27.777344 1.664062 1.664063 3.847656 2.5 6.035156 2.5 2.183594 0 4.367187-.835937 6.03125-2.5 3.339844-3.335937 3.339844-8.730468 0-12.066406-4.195313-4.195312-6.519532-9.777344-6.519532-15.710938 0-5.929687 2.3125-11.519531 6.519532-15.714843 7.425781-7.425781 11.519531-17.289063 11.519531-27.785157 0-10.496093-4.085937-20.363281-11.519531-27.785156-3.335938-3.339844-8.738282-3.339844-12.0625 0-3.339844 3.335938-3.339844 8.726563 0 12.0625 4.195312 4.207032 6.507812 9.796875 6.507812 15.730469 0 5.929687-2.3125 11.519531-6.519531 15.714844-7.425781 7.425781-11.511719 17.289062-11.511719 27.777343zm0 0"/><path d="m314.769531 129.976562c0 10.488282 4.085938 20.351563 11.519531 27.777344 1.664063 1.664063 3.847657 2.5 6.035157 2.5 2.183593 0 4.367187-.835937 6.03125-2.5 3.335937-3.335937 3.335937-8.730468 0-12.066406-4.199219-4.195312-6.519531-9.777344-6.519531-15.710938 0-5.929687 2.3125-11.519531 6.519531-15.714843 7.421875-7.425781 11.519531-17.289063 11.519531-27.785157 0-10.496093-4.085938-20.363281-11.519531-27.785156-3.335938-3.339844-8.738281-3.339844-12.066407 0-3.335937 3.335938-3.335937 8.726563 0 12.0625 4.199219 4.207032 6.511719 9.796875 6.511719 15.730469 0 5.929687-2.3125 11.519531-6.519531 15.714844-7.425781 7.425781-11.511719 17.289062-11.511719 27.777343zm0 0"/><path d="m217.25 96.859375c0 13.335937 5.195312 25.863281 14.636719 35.300781 1.664062 1.664063 3.847656 2.5 6.03125 2.5 2.183593 0 4.371093-.835937 6.042969-2.5 3.328124-3.335937 3.328124-8.730468 0-12.066406-6.222657-6.21875-9.636719-14.460938-9.636719-23.234375s3.421875-17.023437 9.636719-23.246094c9.4375-9.425781 14.632812-21.964843 14.632812-35.300781s-5.195312-25.863281-14.632812-35.308594c-3.339844-3.339844-8.730469-3.339844-12.066407 0-3.335937 3.335938-3.335937 8.726563 0 12.0625 6.210938 6.222656 9.632813 14.464844 9.632813 23.246094 0 8.761719-3.421875 17.015625-9.632813 23.234375-9.449219 9.441406-14.644531 21.976563-14.644531 35.3125zm0 0"/><path d="m400.613281 333.214844c.160157.011718.289063.09375.453125.09375 63.238282 0 110.933594-44.023438 110.933594-102.398438 0-4.71875-3.824219-8.535156-8.535156-8.535156h-77.175782c.238282-5.605469.375-11.289062.375-17.066406 0-4.71875-3.820312-8.535156-8.53125-8.535156h-230.398437v-8.53125c0-4.71875-3.824219-8.535157-8.535156-8.535157-4.710938 0-8.53125 3.816407-8.53125 8.535157v8.53125h-110.933594c-4.710937 0-8.535156 3.816406-8.535156 8.535156 0 82.824218 25.113281 148.320312 71.261719 187.734375h-113.925782c-4.710937 0-8.535156 3.8125-8.535156 8.535156 0 12.925781 61.148438 35.488281 61.765625 35.71875 35.113281 12.621094 94.359375 27.671875 177.167969 27.671875 158.574218 0 232.464844-54.261719 235.535156-56.574219 2.933594-2.210937 4.121094-6.042969 2.960938-9.523437-1.160157-3.472656-4.421876-5.828125-8.089844-5.828125h-113.9375c18.59375-15.878907 33.71875-36.054688 45.210937-59.828125zm93.917969-93.773438c-4.070312 42.882813-38.792969 73.714844-86.375 76.527344 8.738281-22.808594 14.457031-48.460938 17-76.527344zm-255.597656 208.453125c-100.882813 0-165.570313-22.226562-198.46875-37.792969h396.015625c-33.785157 15.699219-98.867188 37.792969-197.546875 37.792969zm-87.722656-54.851562c-51.765626-32.265625-81-95.589844-82.851563-179.199219h102.304687v17.066406h-17.066406c-4.710937 0-8.53125 3.8125-8.53125 8.53125v64c0 4.71875 3.820313 8.535156 8.53125 8.535156h51.199219c4.710937 0 8.535156-3.816406 8.535156-8.535156v-64c0-4.71875-3.824219-8.53125-8.535156-8.53125h-17.066406v-17.066406h221.773437c-1.851562 83.609375-31.085937 146.933594-82.851562 179.199219zm45.054687-145.066407v46.933594h-34.132813v-46.933594zm0 0"/></svg>