<svg id="Layer_1" data-name="Layer 1" xmlns="http://www.w3.org/2000/svg" viewBox="0 0 141.73 141.73"><defs><style>.cls-1{fill:#231f20;}</style></defs><title>Artboard 6</title><path class="cls-1" d="M73.94,24.53l-.76,0c-11.29.37-23.67,8-33.43,17.83S23,64.44,22.44,75.69C22,85,26.83,93.56,32.75,99.52L96.44,35.34c-5.64-5.69-13.72-10.81-22.5-10.81m0,4.44c5.21,0,10.92,2.33,16.12,6.53L32.93,93.06c-4.17-5.38-6.37-11.46-6.1-17.16.43-9.33,6.42-20.69,16-30.38C52.84,35.47,64.23,29.28,73.33,29h.61"/><path class="cls-1" d="M99.47,38.37l-63.7,64.2C41.44,108.28,49.46,113,58.27,113c.39,0,.77,0,1.14,0,11.17-.53,23.44-7.76,33-17.45,9.77-9.83,17.34-22.3,17.71-33.7.31-9.14-4.89-17.58-10.69-23.44m-.18,6.44c6,7.55,6.57,14.15,6.49,16.85-.31,9.17-6.45,20.66-16.43,30.72-9.62,9.69-20.87,15.72-30.14,16.15l-.94,0c-5.36,0-11.05-2.21-16.1-6.18Z"/></svg>