<svg id="Layer_1" data-name="Layer 1" xmlns="http://www.w3.org/2000/svg" viewBox="0 0 141.73 141.73">
    <path d="M64.84,44.43c-21-.11-38,2.59-38.07,6v.06c0,.56,7.25,62.9,7.25,62.9h.06c.16,3.16,13.71,5.79,30.41,5.87s30.44-2.41,30.45-5.59a.31.31,0,0,0,0-.09c.41-3.22,8-62.12,7.9-62.67,0,0,0,0,0-.06,0-3.46-17-6.34-38-6.46m0,5.18c17.2.1,28.49,2,32.62,3.42-1,7.95-4.2,33.37-7.4,58.37-3.08,1.17-12,2.81-25.51,2.72-13.65-.07-22.62-1.84-25.6-3.06-2.42-20.81-5.8-49.75-6.75-58.39,4.14-1.36,15.44-3.15,32.64-3.06"/>
    <path d="M46.91,87.68c1.55,4.06,4.08,10.63,4.55,11.87a2.67,2.67,0,0,0,.33.7,3.37,3.37,0,0,0,.89.32l11.75,3.19c-.39-1.07-.84-2.28-1.32-3.55-1.06-2.87-2.18-5.86-2.65-7.06-.77-2-.77-2-2.29-2.4Zm20.63,22.08a9.14,9.14,0,0,1-2.41-.45l-13.77-3.75a5.94,5.94,0,0,1-4.71-4.14c-.56-1.48-4-10.39-5.26-13.77l-.47-1.23a3.26,3.26,0,0,1,3.24-4.61,7.9,7.9,0,0,1,2,.32l13.3,3.62c3.75,1,4.67,2.76,5.76,5.51.47,1.24,1.59,4.24,2.67,7.14.93,2.45,1.8,4.82,2.2,5.89s1,2.69,0,4.19a3.12,3.12,0,0,1-2.62,1.28"/>
    <path d="M64.43,89a3,3,0,0,0,.25.63c.45,1,1.51,3.9,3.06,8.14L69.27,102c2.2-3.45,6-9.3,6.64-10.53.42-.7.47-.86.1-1.8l-1.12-3c-1-2.53-2.32-6.09-3.38-8.85-1.63,2.55-4.3,6.81-5.65,9l-1.18,1.85c-.08.13-.19.3-.25.41m4.4,20.43h0c-1.92,0-2.75-1.71-3.17-2.62-.36-.73-1.27-3.23-2.74-7.24-1.18-3.22-2.52-6.86-2.94-7.8-1.3-2.94-.6-4.43.38-6L61.51,84c3.23-5.14,6.32-10,7-11a4.3,4.3,0,0,1,3.39-2.16c2.33,0,3.26,2.34,3.58,3.09,1.14,2.83,3,7.7,4.21,10.93l1.11,2.93A6.55,6.55,0,0,1,80.38,94c-.72,1.29-4,6.4-7,11.11L72,107.32c-.41.64-1.37,2.17-3.14,2.15"/>
    <path d="M47,83.2c1.64.51,7,1.93,10,2.74l2.92.78a3.07,3.07,0,0,0,.78.12.54.54,0,0,0,.09-.12c.11-.12.18-.22.26-.32.7-.93,5.23-8.22,6.95-11,.12-.18.23-.34.32-.5L63.11,73.5c-3.63-1-7.67-2.09-8.46-2.29a.3.3,0,0,1-.07.1C53.05,73.43,48.71,80.22,47,83.2M60.63,92a7.51,7.51,0,0,1-2.09-.34c-.66-.16-1.68-.44-2.9-.74-5.23-1.42-9.65-2.59-10.76-3s-2.8-1-3.44-2.64a3.86,3.86,0,0,1,.23-3.26c1-2,7-11.42,8.76-13.82.72-1,1.82-2.51,3.7-2.51a3.94,3.94,0,0,1,1.51.33l.34.11,8.47,2.3,6,1.63c.86.22,2.87.77,3.58,2.65a3.81,3.81,0,0,1-.52,3.57c-.16.24-.58.9-1.15,1.82C66,88.38,65.26,89.41,64.9,89.81l-.11.13A4.87,4.87,0,0,1,60.63,92"/>
    <path d="M125.39,50.05A27.25,27.25,0,0,0,71,47.37c1.7.15,3.42.31,5.11.41a22.13,22.13,0,1,1,22.44,24.4c-.07,1.73-.1,3.44-.25,5.17a27.38,27.38,0,0,0,27.09-27.3"/>
</svg>