<svg id="Layer_1" data-name="Layer 1" xmlns="http://www.w3.org/2000/svg" viewBox="0 0 141.73 141.73"><defs><style>.cls-1{fill:#231f20;}</style></defs><title>Artboard 5</title><path class="cls-1" d="M68.46,35.82c-22.28,0-40.34,3-40.34,6.62a.56.56,0,0,1,0,.07c-.05.6-8,63.4,40.37,63.4s40.34-62.8,40.29-63.41v-.06c0-3.66-18.06-6.62-40.33-6.62m0,5.49c19,0,31.15,2.13,35.09,3.61A95.93,95.93,0,0,1,103.41,62c-.84,8.55-3.36,20.47-10.54,28.56-5.84,6.61-13.81,9.81-24.37,9.81S50,97.21,44.11,90.59c-7.18-8.1-9.72-20-10.57-28.57a97.44,97.44,0,0,1-.17-17.1c3.94-1.48,16.12-3.61,35.09-3.61"/><path class="cls-1" d="M107.3,52.24c-.22,0-.45,0-.67,0,.24,2,.85,3.92-.45,5.51.37,0,.75,0,1.12,0a11.09,11.09,0,0,1,0,22.17,10.9,10.9,0,0,1-4-.75,14.62,14.62,0,0,1-2.36,5,15.91,15.91,0,0,0,6.33,1.28,16.59,16.59,0,0,0,0-33.17"/><path class="cls-1" d="M60.38,54.93a2.73,2.73,0,0,1-2.72-2.73V39.42a2.73,2.73,0,1,1,5.45,0V52.2a2.73,2.73,0,0,1-2.73,2.73"/><path class="cls-1" d="M50,78.32H70.36V59L60.18,54.74,50,59Zm23.07,5.5H47.27a2.74,2.74,0,0,1-2.72-2.75V57.2a2.74,2.74,0,0,1,1.67-2.54l12.91-5.43a2.64,2.64,0,0,1,2.1,0l12.89,5.43a2.74,2.74,0,0,1,1.69,2.54V81.07a2.73,2.73,0,0,1-2.73,2.75"/></svg>