<svg id="Layer_1" data-name="Layer 1" xmlns="http://www.w3.org/2000/svg" viewBox="0 0 141.73 141.73"><defs><style>.cls-1{fill:#231f20;}</style></defs><title>Artboard 7</title><path class="cls-1" d="M84.24,27.23H39.8v78.38h77.78V60.86a11.54,11.54,0,0,1-9.93-8.07A1.75,1.75,0,0,0,106,51.54a1.71,1.71,0,0,0-.43.06,12.08,12.08,0,0,1-2.7.33A11.6,11.6,0,0,1,91.3,40.3c0-.23,0-.46,0-.7v-.12a1.78,1.78,0,0,0-.94-1.69,11.63,11.63,0,0,1-6.18-10.3c0-.09,0-.18,0-.26m-3.86,4.43a15.87,15.87,0,0,0,6.55,9.18,16,16,0,0,0,15.91,15.53c.49,0,1,0,1.48-.08a15.89,15.89,0,0,0,8.86,8.08v36.81h-69V31.66Z"/><path class="cls-1" d="M76.08,38.39H50.69V64H76.08ZM71.69,59.54H55.08V42.81H71.69Z"/><path class="cls-1" d="M76.08,69.49H50.69v25.6H76.08ZM71.69,90.65H55.08V73.93H71.69Z"/><path class="cls-1" d="M106.13,69.49H80.73v25.6h25.4Zm-4.39,21.16H85.12V73.93h16.62Z"/><path class="cls-1" d="M101.73,59.54H85.12V42.81H89.4A45.86,45.86,0,0,0,87,38.39H80.73V64h25.4V56.36c-1.47-.6-2.92-1.23-4.4-1.82Z"/></svg>