<svg id="drinks-svg" data-name="drinks" xmlns="http://www.w3.org/2000/svg" viewBox="0 0 141.73 141.73">
    <path d="M68.47,29.74a162.58,162.58,0,0,0-25,1.7c-7.14,1.18-13.74,3-13.74,8.37V40a7,7,0,0,0,1.87,4.58L59.38,77A8.86,8.86,0,0,1,61,81.46V93.24a1.49,1.49,0,0,1-.74,1l-8,2.2c-6,.85-8.35,2-9.57,3a4.65,4.65,0,0,0-2.06,3.22,3.71,3.71,0,0,0-.06.67,1.88,1.88,0,0,0,0,.33c0,5.37,7.14,6.53,10.57,7.1A114.3,114.3,0,0,0,68.47,112a113.87,113.87,0,0,0,17.29-1.19c3.44-.57,10.56-1.73,10.56-7.1v-.32a3.13,3.13,0,0,0-.06-.68,4.61,4.61,0,0,0-2.05-3.21c-1.28-1.06-3.62-2.19-9.57-3l-8-2.2a1.6,1.6,0,0,1-.77-1V81.46A9.08,9.08,0,0,1,77.56,77l27.76-32.43A7.08,7.08,0,0,0,107.19,40v-.19c0-5.38-6.61-7.19-13.74-8.37a162.58,162.58,0,0,0-25-1.7m0,4.43c19,0,34.32,2.51,34.32,5.64v0a2.69,2.69,0,0,1-.79,1.84L74.23,74.12a13.1,13.1,0,0,0-2.69,7.34V93.24a5.75,5.75,0,0,0,4,5.28l8.25,2.28c4,.57,6.9,1.36,7.84,2.27.29.15.4.3.28.4a.71.71,0,0,1,.06.24c0,2.12-10.52,3.85-23.47,3.85S45,105.83,45,103.71a.71.71,0,0,1,.06-.24c-.12-.1,0-.25.28-.4.92-.91,3.78-1.7,7.84-2.27l8.24-2.28a5.79,5.79,0,0,0,4-5.28V81.46a13.12,13.12,0,0,0-2.71-7.34L35,41.68a2.66,2.66,0,0,1-.8-1.83v0c0-3.13,15.36-5.64,34.32-5.64" style="fill:#231f20"/>
</svg>