<svg id="Layer_1" data-name="Layer 1" xmlns="http://www.w3.org/2000/svg" viewBox="0 0 141.73 141.73"><defs><style>.cls-1{fill:#231f20;}</style></defs><title>Artboard 12</title><path class="cls-1" d="M36.89,76.52c-.12,0-.17.08-.17.11h0a.41.41,0,0,0,.17-.11M91.26,19.74S40.36,73.63,36.89,76.52A69.83,69.83,0,0,1,46,76.21c6.65,0,14.42.18,14.42.18L50.88,122,105,65.62H81.71Zm-7.92,15.2L77.13,64.66,76,70.28H94.05L58.81,107,65,77.35l1.16-5.52-5.63-.12c-.06,0-6.18-.14-12.16-.16,9.34-9.66,24.26-25.35,34.94-36.61"/></svg>