<svg id="Layer_1" data-name="Layer 1" xmlns="http://www.w3.org/2000/svg" viewBox="0 0 141.73 141.73"><defs><style>.cls-1{fill:#231f20;}</style></defs><title>Artboard 9</title><path class="cls-1" d="M72.86,24.41A13.13,13.13,0,0,0,59.79,37.59l0-.1a13,13,0,0,0-17,7.28,13.22,13.22,0,0,0,7.22,17.16s3-1.72,23.08-1.72,23.22,1.91,23.22,1.91a13.2,13.2,0,0,0-5.11-25.33A13,13,0,0,0,86,37.84L86,37.59A13.13,13.13,0,0,0,72.86,24.41m0,4.43a8.73,8.73,0,0,1,8.69,8.75,4.85,4.85,0,0,0,.12,1.06l.07.24A4.39,4.39,0,0,0,84,41.81a4.5,4.5,0,0,0,2,.47,4.23,4.23,0,0,0,1.71-.36A8.65,8.65,0,0,1,99.1,46.57a8.78,8.78,0,0,1-3.3,10.78c-4.22-1-12.08-1.57-22.8-1.57-8,0-17.63.27-22.68,1.42A8.77,8.77,0,0,1,54.84,41a8.56,8.56,0,0,1,2.69.44,4.3,4.3,0,0,0,2.26.63,5.41,5.41,0,0,0,1-.1,4.44,4.44,0,0,0,3.42-4.33,8.72,8.72,0,0,1,8.68-8.75"/><path class="cls-1" d="M73,56.51c-17.06,0-30.89,2.27-30.89,5.07a.21.21,0,0,0,0,.06c0,.45,6.16,51,6.16,51h.06c.13,2.58,11.13,4.66,24.7,4.66s24.71-2.1,24.71-4.7a.35.35,0,0,1,0-.07c.31-2.62,6.18-50.47,6.14-50.91a.06.06,0,0,1,0,0c0-2.82-13.83-5.09-30.89-5.09m0,4.43c13.71,0,22.8,1.45,26.25,2.57-.8,6.86-3.4,28.29-5.69,47.1-2.59,1-9.79,2.26-20.52,2.26S55,111.53,52.46,110.58C50.4,93.83,47.59,70.7,46.75,63.51,50.2,62.39,59.29,60.94,73,60.94"/></svg>