<svg id="nectares-svg" data-name="nectares" xmlns="http://www.w3.org/2000/svg" viewBox="0 0 141.73 141.73">
    <defs/>
    <path d="M70.88,19.8a7.88,7.88,0,1,0,7.81,7.88,7.84,7.84,0,0,0-7.81-7.88m0,4.43a3.45,3.45,0,1,1-3.42,3.45,3.43,3.43,0,0,1,3.42-3.45"/>
    <path d="M70.88,38.46a13.56,13.56,0,0,0-5.45,1.61c-4.33,2.43-7.64,10.18-9.6,12.61a50.48,50.48,0,0,1-4.58,5c-11.07,10.63-14.2,15.92-14.2,27.19a32.89,32.89,0,0,0,32.75,33h2.14a32.87,32.87,0,0,0,32.74-33c0-11.27-3.12-16.56-14.19-27.19a49.07,49.07,0,0,1-4.57-5c-2-2.43-5.29-10.18-9.6-12.61a13.66,13.66,0,0,0-5.44-1.61m0,4.46A8.66,8.66,0,0,1,74.23,44c2,1.15,4.27,5.06,5.79,7.64a34.4,34.4,0,0,0,2.47,3.85,56.5,56.5,0,0,0,5,5.4C98,71,100.29,75.28,100.29,84.85a28.5,28.5,0,0,1-28.35,28.58H69.8A28.49,28.49,0,0,1,41.45,84.85c0-9.57,2.27-13.84,12.84-24a56.83,56.83,0,0,0,5-5.41,33.44,33.44,0,0,0,2.45-3.84c1.53-2.58,3.81-6.49,5.8-7.64a8.59,8.59,0,0,1,3.37-1.06"/>
</svg>