<svg id="sucos-fruta-svg" data-name="sucos fruta" xmlns="http://www.w3.org/2000/svg" viewBox="0 0 141.73 141.73">
    <path d="M70.85,38.7a38.79,38.79,0,1,0,38.51,38.78A38.63,38.63,0,0,0,70.85,38.7m0,4.43A34.36,34.36,0,1,1,36.77,77.48,34.26,34.26,0,0,1,70.85,43.13"/>
    <path d="M67.46,39.12c0,5.27-10.44,10.52-11.56,20.25-.93,8.19,10,26.1,12.62,26.1.48,0,.68-.64.43-2.06-1.49-9.1,9.7-17.6,6-26.63s-7.47-17.66-7.47-17.66m-.62,9.73,4,9.64c1.15,2.8-.19,5.89-2.53,10.63a58.18,58.18,0,0,0-2.65,5.93c-.54-.94-1.11-2-1.67-3.07-3.09-6.15-3.95-10.37-3.74-12.1.45-4.06,3.32-7.33,6.07-10.48l.49-.55"/>
    <path d="M107.22,21.38a3.3,3.3,0,0,0-1.6.7c-2.5,1.64-5.49,2-8.61,2-2.56,0-5.21-.26-7.76-.26-3.87,0-7.48.58-10.22,3.44-6.68,7.08-13,14-13,14a4.82,4.82,0,0,1,2-.37c4.1,0,10.06,3.56,16.49,3.56A15.66,15.66,0,0,0,89,43.8c8.39-2.61,21.46-22.42,18.18-22.42m-18,6.9c1.16,0,2.37,0,3.66.1s2.71.15,4.1.15c.73,0,1.53,0,2.35-.08-.63.87-1.36,1.8-2.13,2.76-4.34,5.33-7.82,7.83-9.48,8.34a10.75,10.75,0,0,1-3.26.48c-2.89,0-5.85-1-8.72-1.88l-.68-.22c2.12-2.27,4.61-4.93,7.13-7.59,1.39-1.47,3.43-2.06,7-2.06"/>
</svg>