<svg id="sucos-funcionais-svg" data-name="sucos funcionais" xmlns="http://www.w3.org/2000/svg" viewBox="0 0 141.73 141.73">
    <path d="M124.67,63.91a9.06,9.06,0,0,0-4.7-3.06A15.41,15.41,0,0,0,119.56,48a9.09,9.09,0,0,0-6.39-4.86c-1-8.31-5.57-19.33-15-19.33A13.23,13.23,0,0,0,96.3,24c-9.18,1.4-11.85,11.54-11.38,20.6-2.39.18-6.28,1-8.46,4.43-2.53,4-1.78,9.41-1,12.52a14.1,14.1,0,0,0-3.21.82,9.08,9.08,0,0,0-5.36,5.73C65.58,72,66.5,77.14,69.24,81.6c5.39,8.85,11.57,21.93,3,33.27a2.3,2.3,0,0,0-.25.43h0a1.89,1.89,0,0,0,.39,2,1.86,1.86,0,0,0,1.35.58,1.68,1.68,0,0,0,.63-.12C118.78,102,125.62,81.9,126.65,76.11c.93-5.18.25-9.4-2-12.2M123,75.44c-2.52,14.13-20.79,26.59-39.82,34.84A66.33,66.33,0,0,0,97.34,87.5a33.6,33.6,0,0,0,11.89-6.38,1.49,1.49,0,0,0-2-2.24,29.08,29.08,0,0,1-8.62,5,90.7,90.7,0,0,0,4.09-18.37c1.79-.84,5.43-2.81,7.37-5.76a1.49,1.49,0,0,0-2.5-1.64A13.19,13.19,0,0,1,103,62a52.84,52.84,0,0,0-.29-11.32,1.49,1.49,0,1,0-2.94.45A53,53,0,0,1,100,62.69a22.5,22.5,0,0,1-7-4.79A1.49,1.49,0,0,0,90.86,60c.18.19,4.18,4.3,8.87,5.78a86.85,86.85,0,0,1-4.3,18.5,44.85,44.85,0,0,1-9.28-8,1.5,1.5,0,0,0-2.26,2c.22.25,5.13,5.86,10.48,8.84C91,95.61,86,103.89,78.93,110.19c4.34-12.78-3.58-25.78-6.48-30.55-2.15-3.5-3-7.57-2-10.39a5.32,5.32,0,0,1,3.2-3.41,10.16,10.16,0,0,1,3.57-.67l.57,0a1.86,1.86,0,0,0,1.65-.74,1.89,1.89,0,0,0,.26-1.78c-.77-2.06-2.27-8.15-.06-11.64,1.59-2.47,5-2.74,6.47-2.74.39,0,.64,0,.67,0a1.9,1.9,0,0,0,1.52-.55,1.87,1.87,0,0,0,.54-1.52c-.82-7.87.78-17.44,8.05-18.54a8.15,8.15,0,0,1,1.3-.11c7.43,0,10.94,10.71,11.41,17.46a2,2,0,0,0,2,1.75h0a5.22,5.22,0,0,1,4.69,3,11.77,11.77,0,0,1-.71,11.43,1.84,1.84,0,0,0-.11,1.88,1.88,1.88,0,0,0,1.59,1,6.05,6.05,0,0,1,4.71,2.11c1.51,1.89,2,5.15,1.22,9.17"/>
    <path d="M76.21,106.15c-5.38,3.08-11.74,3.78-19.14.69a2.23,2.23,0,0,0-1.89,0c-9.92,4.12-18,1.44-24.31-4.71S20.15,86.1,19,76.5s1-18.77,6.5-23.89C28.65,49.72,33,47.92,38.81,48c4.49,0,9.91,1.17,16.37,3.76a2.79,2.79,0,0,0,2,0c8.29-3.32,14.83-4.24,20-3.53a9.66,9.66,0,0,1,4.67-3A26.64,26.64,0,0,0,73.61,44a46.33,46.33,0,0,0-15.4,3c0-.53,0-1.06,0-1.58v0c.41-4.94,2-7.49,4.61-9.52s6.64-3.44,11.54-5.11a2.09,2.09,0,0,0,1.39-2.22,2.07,2.07,0,0,0-2-1.73,2.18,2.18,0,0,0-.72.12c-4.9,1.67-9.29,3.08-12.74,5.75A14.76,14.76,0,0,0,57,36.36a17.77,17.77,0,0,0-2.15-4.58C52.26,28,48,25.21,41.56,23.88a1.46,1.46,0,0,0-.42,0H41a2.06,2.06,0,0,0-1.76,1.51c-1.74,6.72-1.07,12.3,1.89,16.66a18.63,18.63,0,0,0,1.77,2.21A35.05,35.05,0,0,0,38.71,44c-6.72,0-12,2.07-15.93,5.65C15.88,56,13.78,66.52,15,77S20.81,98,28.06,105.06c7.08,6.86,17.06,10.09,28.1,5.76a25.38,25.38,0,0,0,18.35.47,19.63,19.63,0,0,0,1.7-5.14M42.66,28.3c4.5,1.24,7.1,3.18,8.75,5.69C53.28,36.8,54,40.6,54.17,45.31v.41c0,.4,0,.79,0,1.2-4.6-2-7.84-4.39-9.74-7.17-2-2.94-2.72-6.49-1.77-11.45"/>
</svg>