<svg id="Camada_1" data-name="Camada 1" xmlns="http://www.w3.org/2000/svg" viewBox="0 0 64 64"><defs><style>.cls-1{fill:none;stroke:#000;stroke-linecap:round;stroke-linejoin:round;stroke-width:3px;}</style></defs><title>Prancheta 1 cópia 4</title><path class="cls-1" d="M48.42,47c-5,5-23.19,5-28.17,0-5.91-5.92,0-33.45,0-33.45H48.42S54.33,41.06,48.42,47Z"/><polyline class="cls-1" points="45.49 3.19 38.98 3.19 31.55 30.15"/><path class="cls-1" d="M17.92,29.32l2.49,1.2a6.42,6.42,0,0,0,5.58,0,6.47,6.47,0,0,1,5.57,0,6.38,6.38,0,0,0,5.57,0h0a6.47,6.47,0,0,1,5.57,0h0a6.4,6.4,0,0,0,5.57,0l2.45-1.17"/><line class="cls-1" x1="34.33" y1="60.81" x2="34.33" y2="50.71"/><line class="cls-1" x1="27.83" y1="60.81" x2="40.84" y2="60.81"/><path class="cls-1" d="M20.39,13.53h7.44A7.55,7.55,0,0,0,20.39,6.1,7.44,7.44,0,0,0,19,20.83"/></svg>