<svg id="Camada_1" data-name="Camada 1" xmlns="http://www.w3.org/2000/svg" viewBox="0 0 64 64"><title>Prancheta 1 cópia 3</title><path d="M21.21,24.47A1.5,1.5,0,0,1,20.13,24a1.53,1.53,0,0,1,0-2.15c3.21-3.21,2.53-4.73,1.5-7-1.17-2.58-2.61-5.8,2.2-10.6a1.53,1.53,0,0,1,2.15,0A1.53,1.53,0,0,1,26,6.4c-3.33,3.32-2.63,4.86-1.58,7.2C25.55,16.15,27,19.33,22.29,24A1.52,1.52,0,0,1,21.21,24.47Z"/><path d="M24.9,4.06a1.24,1.24,0,0,1,.9.37,1.27,1.27,0,0,1,0,1.8c-3.45,3.44-2.68,5.13-1.63,7.47,1.12,2.49,2.51,5.58-2.06,10.15a1.27,1.27,0,0,1-.9.37,1.27,1.27,0,0,1-.9-2.16c3.33-3.34,2.58-5,1.54-7.31C20.72,12.23,19.32,9.11,24,4.43a1.23,1.23,0,0,1,.89-.37m0-.5a1.78,1.78,0,0,0-1.25.51C18.72,9,20.27,12.44,21.4,15c1,2.29,1.64,3.66-1.44,6.75a1.78,1.78,0,0,0,0,2.51,1.79,1.79,0,0,0,2.5,0c4.82-4.82,3.29-8.23,2.17-10.71C23.58,11.18,23,9.78,26.16,6.58a1.77,1.77,0,0,0-1.26-3Z"/><path d="M30.47,26.55A1.53,1.53,0,0,1,29.39,24c4.15-4.14,3.21-6.21,1.92-9.07C29.91,11.79,28.18,8,33.94,2.2A1.47,1.47,0,0,1,35,1.75a1.52,1.52,0,0,1,1.52,1.52,1.55,1.55,0,0,1-.44,1.08c-4.27,4.26-3.32,6.37-2,9.27,1.38,3.06,3.1,6.86-2.54,12.48A1.51,1.51,0,0,1,30.47,26.55Z"/><path d="M35,2a1.27,1.27,0,0,1,.9,2.17c-4.39,4.39-3.36,6.67-2.06,9.56s3,6.7-2.49,12.2a1.23,1.23,0,0,1-.89.37,1.28,1.28,0,0,1-.9-2.17c4.27-4.26,3.25-6.51,2-9.35-1.37-3-3.06-6.78,2.57-12.41A1.26,1.26,0,0,1,35,2m0-.5A1.73,1.73,0,0,0,33.76,2c-5.88,5.88-4,10-2.68,13,1.25,2.77,2.16,4.78-1.86,8.79a1.77,1.77,0,0,0,0,2.51,1.77,1.77,0,0,0,2.51,0c5.76-5.75,3.93-9.8,2.59-12.76s-2.19-4.85,1.95-9a1.76,1.76,0,0,0,0-2.5A1.73,1.73,0,0,0,35,1.5Z"/><path d="M40.57,24.47A1.48,1.48,0,0,1,39.5,24a1.53,1.53,0,0,1,0-2.15c3.22-3.22,2.54-4.73,1.51-7-1.16-2.59-2.6-5.8,2.22-10.6a1.52,1.52,0,0,1,2.16,0,1.55,1.55,0,0,1,.44,1.08,1.47,1.47,0,0,1-.45,1.07c-3.33,3.32-2.64,4.87-1.6,7.2,1.15,2.56,2.57,5.74-2.13,10.43A1.5,1.5,0,0,1,40.57,24.47Z"/><path d="M44.31,4.05a1.28,1.28,0,0,1,.89,2.18c-3.45,3.44-2.69,5.13-1.64,7.47,1.11,2.49,2.49,5.58-2.09,10.15a1.26,1.26,0,0,1-.9.37,1.27,1.27,0,0,1-.89-2.17c3.34-3.33,2.59-5,1.56-7.31-1.13-2.51-2.53-5.64,2.17-10.31a1.27,1.27,0,0,1,.9-.38m0-.49a1.76,1.76,0,0,0-1.25.51C38.11,9,39.65,12.44,40.78,15c1,2.28,1.64,3.66-1.46,6.75a1.77,1.77,0,0,0,0,2.5,1.77,1.77,0,0,0,2.5,0C46.65,19.39,45.13,16,44,13.5c-1-2.32-1.67-3.72,1.55-6.92a1.77,1.77,0,0,0,0-2.5,1.73,1.73,0,0,0-1.25-.52Z"/><path d="M7.73,62.25a1.49,1.49,0,0,1-1.07-.45L2.23,57.37a1.5,1.5,0,0,1-.44-1.08,1.5,1.5,0,0,1,1.52-1.52,1.47,1.47,0,0,1,1.07.45l4,4H56l3.64-3.66a1.52,1.52,0,0,1,2.6,1.08,1.48,1.48,0,0,1-.44,1.07l-4.09,4.1a1.51,1.51,0,0,1-1.07.45Z"/><path d="M3.31,55a1.32,1.32,0,0,1,.9.37l4.05,4.07H56.08l3.71-3.73a1.27,1.27,0,0,1,.9-.37,1.27,1.27,0,0,1,.9,2.17l-4.08,4.1a1.28,1.28,0,0,1-.9.37H7.73a1.26,1.26,0,0,1-.9-.37L2.41,57.19A1.27,1.27,0,0,1,3.31,55m0-.5h0a1.78,1.78,0,0,0-1.77,1.77,1.76,1.76,0,0,0,.51,1.25L6.48,62a1.77,1.77,0,0,0,1.25.52H56.61A1.75,1.75,0,0,0,57.86,62L62,57.88a1.77,1.77,0,0,0,0-2.5,1.76,1.76,0,0,0-2.5,0L55.87,59H8.47L4.56,55a1.77,1.77,0,0,0-1.25-.52Z"/><path d="M52.4,57.2a1.52,1.52,0,0,1-1.52-1.52,18.78,18.78,0,0,0-37.55,0,1.53,1.53,0,0,1-3.05,0A21.82,21.82,0,0,1,30.57,33.93V31.72a1.53,1.53,0,0,1,3,0v2.21a21.82,21.82,0,0,1,20.3,21.75A1.52,1.52,0,0,1,52.4,57.2Z"/><path d="M32.1,30.45a1.27,1.27,0,0,1,1.27,1.27v2.44a21.59,21.59,0,0,1,20.3,21.52,1.27,1.27,0,0,1-2.54,0,19,19,0,0,0-38.05,0,1.28,1.28,0,0,1-2.55,0,21.59,21.59,0,0,1,20.3-21.52V31.72a1.27,1.27,0,0,1,1.27-1.27m0-.5a1.77,1.77,0,0,0-1.77,1.77v2a22.08,22.08,0,0,0-20.3,22,1.78,1.78,0,0,0,3.55,0,18.53,18.53,0,0,1,37.05,0,1.77,1.77,0,0,0,3.54,0,22.08,22.08,0,0,0-20.3-22v-2A1.77,1.77,0,0,0,32.1,30Z"/></svg>