<svg id="Camada_1" data-name="Camada 1" xmlns="http://www.w3.org/2000/svg" viewBox="0 0 64 64"><defs><style>.cls-1{fill:none;stroke:#202020;stroke-linecap:round;stroke-linejoin:round;stroke-width:3px;}</style></defs><title>Prancheta 1</title><path class="cls-1" d="M26,17.7A25,25,0,0,1,35,16c13.3,0,24,10.3,24,23S48.3,62,35,62,11,51.7,11,39a22.15,22.15,0,0,1,3.7-12.3"/><path class="cls-1" d="M29,4c0,10.2-3.6,24-24,24C5,14.2,13,4,29,4Zm0,20c1.5-.7,5-.2,6,2,1-2.2,4.4-2.9,6-2m-6,2c0-6-.4-19.5,6-24"/></svg>