<svg id="Camada_1" data-name="Camada 1" xmlns="http://www.w3.org/2000/svg" viewBox="0 0 64 64"><title>Prancheta 1 cópia</title><path d="M43.31,18.4l9.86-9.87a1.27,1.27,0,0,1,1.82,0,1.26,1.26,0,0,1,0,1.82l-9.86,9.86a1.48,1.48,0,0,1-1.91,0A1.33,1.33,0,0,1,43.31,18.4Zm4,5.88a1.31,1.31,0,0,0,1,.35,1.29,1.29,0,0,0,.95-.35l9.87-9.86a1.27,1.27,0,0,0,0-1.82,1.26,1.26,0,0,0-1.82,0l-10,9.86A1.26,1.26,0,0,0,47.29,24.28Zm-4.5,6.31L38,35.35,54.9,52.22a2.82,2.82,0,0,1,0,3.89L53,58a2.74,2.74,0,0,1-2,.78A3.06,3.06,0,0,1,49,58L32.15,41.15,14.24,59.06a2.75,2.75,0,0,1-2,.77,3,3,0,0,1-2-.77l-1.9-1.91a2.82,2.82,0,0,1,0-3.89L26.27,35.35.66,9.75l1-1c2.86-2.85,10-6.66,16.35-.34L28.78,19.26a2.82,2.82,0,0,1,0,3.89l-1.47,1.48,4.84,4.84,4.76-4.76a9.84,9.84,0,0,1,2.25-10.29L49,4.56a1.28,1.28,0,1,1,1.82,1.81l-9.78,9.86a7.11,7.11,0,0,0-1.38,8.22h0v.09a.83.83,0,0,1,.08.43v.09a.83.83,0,0,1-.08.43v.09c-.09.08-.18.26-.26.34h0L10.35,55a.16.16,0,0,0,0,.26l1.9,1.9a.16.16,0,0,0,.26,0L41.58,28.09h0c.09-.09.26-.18.35-.26H42a.78.78,0,0,1,.44-.09h.08a.73.73,0,0,1,.43.09h.09a7.27,7.27,0,0,0,8.22-1.39l9.86-9.86A1.29,1.29,0,1,1,63,18.4l-9.78,9.86a9.76,9.76,0,0,1-6.92,2.85A11.47,11.47,0,0,1,42.79,30.59ZM28.26,33.45l2.16-2.16-6.66-6.66,3.29-3.29a.17.17,0,0,0,0-.26L16.23,10.26c-4.67-4.67-9.6-2-11.67-.43Zm8,3.63-2.16,2.17L51,56.11a.16.16,0,0,0,.26,0l1.9-1.9a.16.16,0,0,0,0-.26Z"/></svg>