<svg id="Camada_1" data-name="Camada 1" xmlns="http://www.w3.org/2000/svg" viewBox="0 0 64 64"><title>Prancheta 1 cópia 2</title><path d="M11.93,6.56,2.91,18A9.5,9.5,0,0,0,5,31.15L39,56.53a12.14,12.14,0,0,0,7.23,2.4h7.16a9.5,9.5,0,0,0,9.48-9.51,8.49,8.49,0,0,0-6.57-8.21l-4.95-2.52a9.13,9.13,0,0,1-3.61-3.34L36.89,17.87a4.14,4.14,0,0,0-4.25-1.76A12,12,0,0,1,18.77,7.84a3.93,3.93,0,0,0-3-2.71A4.37,4.37,0,0,0,15,5.07,3.94,3.94,0,0,0,11.93,6.56ZM15,8l.22,0a.93.93,0,0,1,.74.68A15,15,0,0,0,33.22,19a1.19,1.19,0,0,1,1.2.45L45.23,36.9A12,12,0,0,0,50,41.3l5,2.59a1.33,1.33,0,0,0,.32.12c2.86.71,4.56,2.74,4.56,5.41A6.56,6.56,0,0,1,53.38,56H46.22a9.21,9.21,0,0,1-5.47-1.82l-34-25.39a6.6,6.6,0,0,1-1.46-9l9-11.39A1,1,0,0,1,15,8Z"/><path d="M27.13,30.14A1.48,1.48,0,0,0,29,31l9.34-3.5a1.47,1.47,0,0,0-.51-2.85,1.29,1.29,0,0,0-.51.1L28,28.25A1.47,1.47,0,0,0,27.13,30.14Z"/><path d="M43.66,33.69a1.46,1.46,0,0,0,.86-1.89,1.48,1.48,0,0,0-1.38-.95,1.52,1.52,0,0,0-.51.09l-9.35,3.51a1.47,1.47,0,0,0-.86,1.89,1.51,1.51,0,0,0,1.9.86Z"/><path d="M24.17,54H2.63a1.47,1.47,0,0,0,0,2.94H24.17a1.47,1.47,0,1,0,0-2.94Z"/><path d="M14.38,46.2H2.63a1.47,1.47,0,0,0,0,2.94H14.38a1.47,1.47,0,1,0,0-2.94Z"/><path d="M6.54,38.37H2.63a1.47,1.47,0,1,0,0,2.93H6.54a1.47,1.47,0,1,0,0-2.93Z"/></svg>